<svg width="89.529686mm" height="118.39128mm" version="1.1" viewBox="0 0 89.529686 118.39128" xmlns="http://www.w3.org/2000/svg" xmlns:cc="http://creativecommons.org/ns#" xmlns:dc="http://purl.org/dc/elements/1.1/" xmlns:rdf="http://www.w3.org/1999/02/22-rdf-syntax-ns#" xmlns:xlink="http://www.w3.org/1999/xlink">
	<title>SVG Redraw : Ayano Trading Strap</title>
	<defs>
		<linearGradient id="linearGradient79831" x1="60.834671" x2="61.173233" y1="61.902176" y2="62.644516" gradientUnits="userSpaceOnUse">
			<stop stop-color="#7a5d4b" offset="0"/>
			<stop stop-color="#553e36" offset="1"/>
		</linearGradient>
	</defs>
	<g transform="translate(-31.703431,-21.124327)">
		<g>
			<g>
				<path d="m74.034758 23.680208c-3.402709.06305-6.831836.745085-9.882815 2.288238-1.956273.977927-3.720835 2.305778-5.319813 3.790273-1.042556.931881-2.015855 1.947865-2.830888 3.086928-1.35623 1.879984-2.355612 4.003164-3.043155 6.213171-.656244 2.112851-1.157584 4.271216-1.830248 6.379167-.686596 2.984574-1.932553 5.799209-3.198786 8.574781-.564255 1.247981-1.194302 2.468576-1.681202 3.749937-.118163.32993-.171423.676651-.320939.995984-.460672 1.234392-.77828 2.53374-.799836 3.856302-.07854 1.192551.09971 2.479598.871667 3.436276.765845.962655 1.969402 1.419167 3.133027 1.687248 1.031144.235744 2.080654.380727 3.113103.610801.699003 1.266508 1.811806 2.286127 3.117077 2.903987 1.74928.936906 3.804373 1.119744 5.749629.897867.124174.000894.276371-.05507.384408-.02947.10029.126301.09745.235005-.06381.285686-1.894162 1.176997-3.352302 2.94391-4.439047 4.870694-.538345.868836-.906872 1.827037-1.295209 2.768523-.198303.482452-.362233.980514-.554884 1.463513-.138412.151466-.201361.394793-.416595.451165-.502356.247552-.819054.73007-1.213948 1.106004-.871032.224586-1.770985.240985-2.643899.473725-.397983.08986-.769199.272249-1.178057.311407-1.869001.324578-3.625898 1.124122-5.205251 2.15945-1.060262.698177-2.07963 1.459378-3.058279 2.267685-1.410584 1.191573-2.650442 2.567472-3.863901 3.954561-.535085.860917-1.152528 1.669187-1.659133 2.547583-.42113.746564-.71378 1.649841-.467553 2.50191.07483.210302.143412.445932.356227.554352.239725.173226.05811.483736-.03467.690108-.307446.592897-.682848 1.155197-.90043 1.790736-.280766.56743-.492517 1.1775-.580052 1.80569-.110106.79684.217281 1.55311.393065 2.31394.354674 1.35659.780492 2.69899 1.33767 3.98691.186023.43012.404781.84472.615373 1.26305.977459-.29077 1.982812-.46899 2.993377-.59663l.693222-.0984c-.236543-.33094-.529569-.62605-.725332-.98325-.25251-.61499-.249915-1.3034-.526484-1.91211-.292097-.82304-.594436-1.64387-.966139-2.43507.06356-.32487.127125-.64974.190688-.97462.288446 1.31987.799042 2.58068 1.425242 3.77479.240853.43311.414689.90863.714089 1.30618.336193.44695.947126.61621 1.477502.46908.30053-.0379.638416-.10333.917168.0337.272626.38544.570923.82587 1.067723.92434.773605.16947 1.570366.036 2.349212-.0253.662532-.0675 1.319921-.17522 1.979207-.26768l-.432017-.5085c.963584-.002 1.933192.0814 2.892507-.0376.457714-.0406.84518-.29803 1.241608-.50497-.43343-.60391-.883997-1.19675-1.406263-1.72759-.639993-.69535-1.387089-1.2793-2.162842-1.81438-.241311-.15892-.07689-.0963.09254-.0211.361529.15618.704043.35495 1.075679.49038 1.074481.50434 2.062398 1.17055 3.103367 1.73798l.724826.41124c-.165081-.95054-.425503-1.88956-.478009-2.85615-.0083-.24195.0145-.4834.02325-.72502-.620017-.26281-1.193906-.61649-1.739453-1.00895-.682157-.48984-1.429419-.89627-2.241248-1.12361-.618588-.19057-1.27168-.25767-1.917129-.22699.454382-.39341.456272-1.038186.522449-1.588533.185478-1.141542.279665-2.299216.473914-3.437615.466775-2.356693.150562-5.268002 2.878852-6.022789.896053-.140306 1.787739-.314614 2.686616-.432824 1.091041-.108839 2.173552-.422812 3.101446-1.01863.449164-.276413.889441-.566904 1.340725-.839912.502185-.308959.924259-.731308 1.412965-1.055195.187063-.05854.36694-.170638.567029-.106741.513575.05575 1.032042.04706 1.5469.01424-.716204.688943-1.393405 1.425713-2.207139 2.00428l-.914635.703564c1.140619.106159 2.283402.266639 3.431516.186213.204541-.03989-.0823.181785-.11348.267801-.611198.791808-1.202838 1.601647-1.826236 2.382203-.842806.752078-1.627822 1.597123-2.170311 2.594977-.173008.333669-.28974.719312-.175707 1.091433.151315.833342.779619 1.492755 1.505675 1.882913.475361.265557.983779.464462 1.492599.655407-.445489.615204-.883661 1.249844-1.448263 1.763058-.993463.85248-2.099133 1.55996-3.18026 2.29379-.446526.318-.943591.58022-1.298763 1.00796-.252288.2863-.478755.59684-.680915.91954-.27821.50939-.0881 1.11952.2115 1.57351.220495.32735.448254.67128.470955 1.07837.09463.1526.28407.25252.418666.38119 1.329357 1.06432 2.845647 1.8754 4.382601 2.5886-.0091.37631.310113.62979.606049.79863.158872.0629.238906.15972.172228.33154-.08908.96176-.274262 1.936-.11992 2.90059.106003.60693.442714 1.13806.84296 1.59434.914615 1.11738 2.074961 1.99916 3.281336 2.77852l5.309754 4.71702c-.249217.56032-.06298 1.18814.183451 1.71307.12255.59681-.101272 1.19098-.251981 1.75357-.110961.73782.235977 1.47973.782868 1.96638.559051.56406 1.381728.90362 2.179542.78159.0081.37722.02181.76149.02635 1.1343-.843447-.1945-1.763617-.27748-2.584595.0264-.861571.24296-1.583817.97823-1.7154 1.87732-.194064.75816.05761 1.61599.668293 2.11571.416446.32464.936733.48992 1.408395.72371.577845.26999 1.209384.56856 1.823799.81783 1.04471.43219 2.127647.77661 3.237558.99405.516065.17919 1.071883-.042 1.46453-.38542.717831-.66015 1.069792-1.60481 1.380064-2.50568.130019-.36998.229881-.74785.274098-1.13803.288012-1.59593.832691-3.13441 1.49657-4.61033.839343-2.03471 1.565596-4.12652 1.973964-6.29387.269886-1.23161.486183-2.49668.349716-3.76061-.09142-.9564-.07117-1.95831.29061-2.86072.291444-.55223.62539-1.08155.914157-1.63556.563102-.16212 1.106993-.3822 1.639175-.62427.449001-.1739.815801-.56117 1.312067-.60203.209007.0515.406881.17687.633552.12816.742839-.11212 1.439561-.4219 2.126819-.67919 1.053047-.42465 2.034431-1.01262 2.959293-1.66726.470792-.33202.890561-.7292 1.299027-1.13189.316469-.24153.468138-.68432.302308-1.05626-.134437-.28215-.368504-.50201-.522981-.774-.667049-1.00104-1.47075-1.89984-2.277887-2.78795-.483643-.52718-1.035299-.9839-1.55493-1.47311-.839311-.83453-1.630712-1.75384-2.099411-2.85318-.158911-.346753-.296005-.703168-.420341-1.063668.60502-.366672 1.246421-.864901 1.376659-1.604036.05021.04663.252347.06501.385477.02909.13499-.01271.149368.216524.239292.294404.227208.343313.450778.689293.732197.990317.285554.33029.598633.636328.930751.919644.355365.966019.681961 1.944979 1.085205 2.891809.31393.58771.910214.92947 1.453658 1.27434.349948.006.707506.004 1.051774.0219.399044-.0565.709742-.41827.770853-.80946.06369-.11624.05628-.28674.132072-.37888.257119-.0713.482436-.21748.709718-.34571.195136-.0752.387284-.16189.560192-.28052l-.447516.59583c1.169688.28901 2.346602.55245 3.511687.85779.512519.17286 1.0251.35505 1.56138.44033-.66119.84129-1.300985 1.73672-1.628317 2.76675-.09874.34722-.146179.73489.0067 1.07384-.03367.13157-.26556.27856-.151654.39928.456422.61202 1.042861 1.1327 1.739821 1.45374.34548.173.71131.2995 1.06904.444.26349-.50874.56297-1.00656.98806-1.39838.58851-.56376 1.2734-1.02403 2.00814-1.3751.3464.28198.69281.56396 1.03921.84594-.51719.69547-.90588 1.48803-1.10174 2.33423.51066.64718 1.23438 1.12374 2.02263 1.3585.18246.0477.36889.0796.55292.121.15417-.23186.30834-.46371.46251-.69557.61297.0316 1.22594-.006 1.83709-.0522-.01-.24233-.004-.48108.0713-.71326.121-.56372.13456-1.14274.14372-1.71708.29411-.26828.60153-.52185.91674-.76482-.12297.74225-.32609 1.46974-.43487 2.21526-.11392.72976-.20749 1.4668-.19765 2.2067.55481.27707 1.15573.4809 1.78154.48815.52953.0163 1.05957-.002 1.58931.0105-.0273-.66316.11674-1.31585.18043-1.97345.0681-.58922.13436-1.17913.2803-1.75505.18261-.82992.31311-1.66994.49994-2.49902.1441-.93726.52671-1.84446 1.11142-2.59192.48794-.46251.95508-.95003 1.456-1.39693.77674-.52515 1.29499-1.38009 1.45779-2.29832.23578-1.283949.0652-2.594822-.0556-3.881679-.0978-.919424-.18792-1.820354-.27832-2.732172-.22177-1.40317-.66321-2.757924-1.14857-4.088982-.59164-1.682358-1.32281-3.31902-2.23562-4.852363-.82736-1.634916-2.26378-2.847721-3.73334-3.890285-.80439-.565679-1.62462-1.108871-2.44359-1.651727-1.05579-.579374-2.10265-1.180801-3.21658-1.644431-.93674-.405715-1.90933-.724328-2.88792-1.008229-2.31542-1.090861-4.707897-2.007338-7.024983-3.094789-.185669-.08879-.439341-.212132-.651124-.314193-.129664-.0668-.305326-.151474-.447505-.226292-.437825-.225015-.868882-.46346-1.288823-.720418-.11494-.07274-.309033-.194025-.449995-.290955-.158967-.127712-.390369-.203525-.430618-.427635-.04354-.136708-.138919-.278405-.143496-.416243.225586-.517223.397486-1.060034.642736-1.566812.398055-.231886.810204-.442809 1.177705-.723471 1.633424.04538 3.324628-.170104 4.771618-.975688.491371-.275974.971354-.597681 1.376685-.984229.26233-.608762.4213-1.253001.59961-1.888943 1.45179-.755769 2.76071-1.824019 3.69805-3.173322.91315-1.320792 1.30327-2.952623 1.23873-4.546153-.068-1.902963-.66122-3.739682-1.36335-5.493861-.75662-1.83524-1.72539-3.575762-2.7833-5.25272-.0849-2.895007-.66658-5.7683-1.635755-8.494654-1.250849-3.486396-3.30586-6.71603-6.107464-9.159357-2.43037-2.177608-5.419743-3.701017-8.584472-4.47623-2.365809-.589448-4.817859-.777155-7.250195-.697603-1.287028-.12148-2.580309-.180075-3.87315-.154732zm16.977775 58.207298c1.076648.463741 2.212739.790951 3.366201.992188 1.332322.04893 5.526213-.324846 6.853556-.455892 2.1649 3.225644 4.99972 8.101718 5.75556 13.393987-.14473.771969-.13414 1.087118-.001 2.373633-.90589.369842-1.6835.977217-2.44378 1.580264.004.180527.008.361054.0119.541574-1.07393.161-2.03241.70442-2.97863 1.20457-.7936-.70572-1.881189-1.15767-2.95246-.9671-.201182.0853-.04792-.14172-.0454-.24843.05026-.25903.1333-.51394.209989-.762151-.02958-.237075-.01466-.494686-.07246-.718968-.243509-.296643-.620924-.534239-1.017783-.43606-.12759.04271-.253164.121139-.264793-.07691-.193902-.478893-.489286-.918567-.871781-1.267105.09138-.370883.0896-.789168-.111619-1.123964.03924-.42128-.165534-.805373-.264452-1.201271-.01858-.246203-.08965-.492623-.161364-.720056.263475-.597519.0701-1.268061-.218061-1.818098-.08354-.156323-.165727-.312181-.140456-.493977-.0099-.761915-.39025-1.525489-1.058781-1.915303-.225975-.14243-.474633-.247456-.729956-.324799-.978408-2.529391-1.956816-5.058778-2.935221-7.588168l.0708.03204zm-26.542566 3.205491c-.09263.161268-.250052-.125228-.371803-.165206-.252899-.176189-.07534-.07748.09278.01519.09301.05001.186018.100012.279027.150019zm-5.22397 1.150834-.345718-.587044c.14778-.06031.154612.253965.241739.354843zm.455268.140041c-.221567.07131-.270928-.04669-.242252-.25047.01026-.08918-.0507-.516734.02572-.291518.07218.180663.144357.361325.216535.541988zm45.643205 14.851808c-.20916.12686-.26301.0248-.24016-.19021-.0125-.20686-.0249-.41373-.0373-.62059.0925.27026.185.54053.2775.8108zm-35.611261 11.88041c-.108368.15524-.218945.3088-.341579.4532-.117753-.0987-.368123-.14686-.242967-.33816.02582-.18471.07318-.33118.274907-.2036.103214.0295.206428.059.309639.0886zm1.966288.75809c.418114.0362.836912.0645 1.256255.0817-.09221.53535-.195672 1.07009-.238228 1.61231-.390792-.58613-.783045-1.17321-1.234548-1.71514.07217.007.144348.0141.216521.0212z" fill="#291e1b" stroke="#1b1010" stroke-width="1.1" style="paint-order:markers stroke fill"/>
			</g>
			<g fill="#1b1010" stroke="#291e1b" stroke-linejoin="round">
				<path d="m101.23146 53.108324-1.11362 4.883938.37103 4.031798c1.12547-.663541 2.02063-1.833293 2.85099-3.146063-.32792-1.889141-1.12959-3.821361-2.1084-5.769673z" stroke-linecap="round" stroke-width="1.3" style="paint-order:markers fill stroke"/>
				<path d="m53.11506 53.340353c-.99427 2.134261-2.54265 3.829672-4.29276 5.365565-.44896.440354-.90184.876892-1.16582 1.502233-.63812 2.654374 1.40702 3.506382 2.74919 4.830714-.11373-3.81685 1.92561-6.360014 2.70939-11.698512z" stroke-linecap="round" stroke-width="1.2" style="paint-order:markers fill stroke"/>
				<path d="m106.90407 102.25009c-1.28942.81636-2.65858 1.54841-3.56568 2.7683l1.99523-.8201z" stroke-width=".465" style="paint-order:markers fill stroke"/>
			</g>
		</g>
		<g>
			<g>
				<path d="m90.925506 99.446124 5.028729-2.207953c.899318.60636 1.069569 1.567907 1.347891 2.476804-.01958-.401988.445961-1.172288.919837-.640244l.03184.416308c-.234802.583481-.148423 1.124671-.671102 1.597431-.148627.47806-.71856.37109-1.097008.26271-.251634.092-.756846.42638-1.167831.62906-.459744.22673-.785258.32285-1.060225.3685.442795-.18598-.04325 1.16818-.264054 1.0554l-.822931-.0112c-.495551-.3782-1.084995-.6422-1.29195-1.37139l-.953196-2.575428" fill="#fbe9d5"/>
				<path d="m88.89262 96.936628 6.529456-2.929128c.144812.254877.206785.555776.250079.867052l.213992 1.196388c.217299.179505.293553.510905.06809 1.167231-.833911 1.099279-2.078213 1.824377-3.686447 2.217655l-1.342287-.0097-1.225571-1.235271-.807315-1.274225" fill="#48414f"/>
			</g>
			<g stroke="#000">
				<path d="m88.89262 96.936628c.693622 1.284301 1.364854 1.941694 2.032886 2.509498l1.342289.0097c1.806601-.419926 2.858608-1.256866 3.686432-2.217695.241352-.684179.127387-.971239-.06808-1.167209.128751-.418804-.107259-.801132-.21399-1.196388-.03734-.269287-.0396-.523543-.250081-.867034" fill="none" stroke-width=".1"/>
				<path d="m89.224617 97.486646c.463641.08819.964899.02088 1.42854-.0053 2.097127-.277124 3.784531-1.125955 5.018998-2.606792.110285.407786.341826.843553.213992 1.196388-1.174172 1.084511-2.506602 1.934187-4.299222 2.101001-.628996.04433-1.257992.109668-1.886988.03891z" fill="#fefeff" stroke-width=".08"/>
				<path d="m90.925506 99.446124c.412288 1.151846.794097 2.203106 1.058328 2.866366.235104.52065.80225.83149 1.186818 1.08045.363867.004.569214.007.822933.0112.413377-.10393.271283-.49997.453454-.82853.113896-.20114-.26817-.23683-.50718-.0989.521171-.10898 1.195323-.28456 1.378003-.49647.256796-.10697.606735-.20107.836623-.49064.373508-.21169.579723-.1139.789345-.0224.207223.0845.389066.0167.537426-.25192.48089-.54716.52019-1.17469.772549-1.72424l-.03184-.416307c-.239654-.248426-.489762-.202175-.668922-.02909-.16489.159296-.269683.426024-.250916.669332-.377507-1.674713-.769007-1.989575-1.347885-2.476802" fill="none" stroke-linejoin="round" stroke-width=".1"/>
			</g>
			<g>
				<path d="m73.250972 119.71406 8.107492 2.00857.277847-4.03461c-.08602-2.57219.86429-3.47029 1.581597-4.74479-3.270555-.0906-6.747158-.83109-9.629794.30173-.118001 1.24744-.523882 2.25499-.293094 3.79309l-.04405 2.67601" fill="#fbe9d5"/>
				<path d="m73.250972 119.71406c2.945022-1.15203 7.020004.45768 8.107492 2.00857-.458855 1.89265-.911787 3.78563-1.737892 5.65788-.769194 1.90327-1.541087 3.8056-1.829083 5.87544l-4.821452-2.61185-.05596-2.25465-.12659-5.6593.463487-3.01609" fill="#5f5a56"/>
				<path d="m68.705015 133.17925c-.33672-1.15411.40113-2.64757 2.748224-2.41694l1.195607.19394c.5892-1.11465 3.921781-.49745 3.567256 1.35809l1.575387.94161c-.36098 1.01604-.681638 2.07016-1.376836 2.77055l-7.709638-2.84725" fill="#8d5c5a"/>
				<path d="m68.705015 133.17925c2.898244-.22821 6.494987 1.69558 7.70964 2.84725-.270637.24646-.513074.5365-1.067733.34401-2.163093-.40215-4.174738-1.38485-6.180733-2.38921-.379922-.3877-.4707-.6576-.461174-.80205z" fill="#3d201f"/>
				<path d="m72.787485 122.73015c-.848833-.0295-1.533674-.67847-2.609559.14981-.292477.49047-.269103.98094-.06628 1.47141.421483.37669.09517 1.3333-.152861 2.2292-.000908.69588.351826 1.2503.91716 1.71968 1.052527.67776 1.526408.32953 2.03813.0892l-.12659-5.6593" fill="#8d5c5a"/>
				<path d="m64.526381 117.85941 5.651545 5.02055c.810436-.77483 1.729628-.22282 2.609559-.14981l.508744-4.88806c-.579864-1.2782-1.283431-2.52266-2.254681-3.69411-.392702-.51318-.76071-1.09452-1.426689-.85346z" fill="#5f5a56"/>
				<path d="m60.795264 110.42461c2.696768.69658 5.982616 1.03064 8.090305 2.08973l.538213.46172c.577756 1.42287-.07271 2.893-.926498 3.74913-1.141474 1.1446-2.946585 1.17652-3.970903 1.13422-1.381195-.90283-2.662262-1.89709-3.59488-3.20949-.732315-1.48831-.154301-2.82425-.136237-4.22531" fill="#fbe9d5"/>
			</g>
			<g fill="none" stroke="#000">
				<path d="m74.151801 131.49948c-.897762-.37662-1.807731-.73493-2.915369-.79674-2.615022-.14768-3.46367 2.66165-1.738358 3.47671 2.424262 1.13232 4.090684 1.78404 5.848848 2.19106.996287.30161 1.79569-.85069 2.444567-3.11456-.62038-.34033-1.403788-.72594-1.575387-.94161.09745-.82067-.28703-1.14751-.829386-1.53723-.752855-.50159-2.31527-.57119-2.73787.17914" stroke-linecap="round" stroke-linejoin="round" stroke-width=".16"/>
				<path d="m73.588116 113.24496c-.152466 1.43662-.539561 2.51928-.293095 3.79309-.01015 3.51799-.268164 3.05219-.45498 5.78474-.03414.77472-.08545 1.4693-.04333 2.59988-.01742 1.74385.306475 3.14416.173326 5.22143 1.649346-.89285 3.643413.6417 3.246065 1.67024.422586.35049 1.004423.64411 1.575387.94161.157184-2.02827 1.358101-4.61782 1.591593-5.1684 1.040243-2.5411 1.585427-4.27332 1.993241-6.41305.502443-2.27126.325059-3.00158.25999-3.98648-.06559-.31487-.07359-1.76252.476645-2.75155.985568-1.70399.787667-1.41478 1.10495-1.99324-3.222284-.0106-6.524613-.74161-9.629792.30173z" stroke-linecap="round" stroke-linejoin="round" stroke-width=".15"/>
				<path d="m73.250974 119.71406c1.111313-.37754 2.342469-.61277 4.14908-.16465 3.033234.75417 3.46988 1.72575 3.95841 2.17322" stroke-width=".1"/>
				<path d="m68.885569 112.51434c-.236837 1.02384-.71249.37472-1.072634 1.90829" stroke-width=".1"/>
				<path d="m60.795264 110.42461c-.298621 2.64829-.415202 3.31451.136238 4.22531 1.135448 1.56752 2.467021 2.46896 3.594879 3.20949 1.787833 1.41748 3.675746 3.10183 5.651545 5.02055.439728-.35392.920376-.56871 1.515923-.39284.658652.18796.741723.16661 1.093636.24303" stroke-width=".165"/>
				<path d="m70.177926 122.87996c-.435342.60526-.22145 1.03018-.06628 1.47141.26238.42197.161011 1.26796-.152861 2.2292-.07514.91237.557271 1.40476.91716 1.71968 1.180167.76544 1.956172.24527 2.03813.0892" stroke-width=".15"/>
				<path d="m64.526381 117.85941c1.310304.0132 2.621517.0405 3.8656-.97269 1.320548-1.22384 1.499198-3.35979 1.031801-3.91066l.191077.31846c.618054-.25136 1.080592.32239 1.426689.85346.854831 1.13843 1.729368 2.25912 2.254681 3.69411" stroke-width=".1"/>
			</g>
			<g>
				<path d="m86.047908 98.93623c2.184339-1.079587 1.583832-1.94815 1.446586-2.094651l-2.696289 1.58424c.31055.01807.311181.988105 1.249703.510411z" fill="#242022"/>
				<path d="m67.457817 79.905298-2.359367 2.954679-1.427316 2.611122-.590539 3.273248c-.39385 1.182583-.885296 2.336331-2.25166 3.231581-1.742147 1.348232-2.395186 2.381549-2.803387 3.408109l5.781204-.257562c-1.455599 1.448944-2.594185 3.117359-3.768945 4.76073-1.398295 1.371305-3.116053 2.359255-4.717465 3.486825-1.817782 1.70332-.359621 2.11587-.206203 3.2894 1.422824 1.21974 3.168699 2.11644 4.991928 2.93578-.94089.75845 3.617119 1.94961 6.00692 2.43166l2.052349.25996c-.146903.27656-.148088.5167.536602.58536 2.383939.54028 4.833937.66219 7.322716.53849l.41487-.5013.880144.41111.162989.37099c2.6705.42155 5.210856-.25649 7.363121-1.09762l1.170622-.79281.778328.25237c2.501964-.4543 4.449289-1.68027 6.148983-3.25077.627309-.53616.0015-.69094-.08592-1.00956-2.92735-4.42945-5.409868-4.15524-6.862841-9.526351-2.746444.568337.920354-.446022 1.499539-1.42916l-2.601513-4.521653c-.15224-.940085.04727-1.919254.07235-2.879042l1.969455 4.73447c.139076 1.183774.718927 2.092064 1.53443 2.853071 2.837633-.317153 4.932311-1.61986 6.952861-3.020899.471317-.731654-.0049-1.362505-.287703-2.013934.0759-1.247585-.579788-1.860406-1.654302-2.109835-1.05788-1.697484-1.933428-3.542236-2.550985-5.595366-.32852-1.1816-1.253425-2.75511-.98447-3.544083l-2.680811-2.632631-6.969173 1.97957-9.670071.927111-3.166739-1.11306" fill="#48414f"/>
				<path d="m77.218528 105.59966c-.321926 2.43012-.728797 4.84963-.779004 7.31372l.880144.41111c.128061-1.33568-.261927-6.65078-.10114-7.72483" fill="#242022" fill-opacity=".997549"/>
				<path d="m83.182631 104.94435c.210112 2.2908.954819 4.43903 1.693717 6.58882.04651.35962.315847.73781-.03057 1.06469.622954-.24355 1.067874-.90993 1.948952-.54044z" fill="#242022" fill-opacity=".997549"/>
				<path d="m58.025548 95.384039c.155586 1.549803 1.662193 1.996786 3.353404 2.631087.809267-.962884 1.290577-1.556817 2.4278-2.888651-2.281121-1.072739-5.213609-1.722131-5.781204.257564z" fill="#242022" fill-opacity=".997549"/>
			</g>
			<g stroke="#000">
				<path d="m63.806753 95.126476c-2.100613 2.152125-3.251938 4.322524-4.406943 5.356554s-4.123456 2.71519-4.918403 3.89157c-.591798.77849.711288 1.62657.632732 2.28883 1.379503 1.15081 3.046139 2.08597 4.991928 2.93578" fill="none" stroke-width=".165"/>
				<path d="m66.673962 96.501428c-.338055 1.752294-.422261 1.380824-2.202852 5.979172-1.699093 2.47457-3.102493 4.82593-4.365043 7.11861-.367179.37156-.06991.49011.602403.80346 1.695129.84413 3.509421 1.35064 5.404517 1.6282.483573.003 1.464374.16825 2.052349.25996" fill="none" stroke-width=".165"/>
				<path d="m71.582104 98.44484c-.162676 1.8151-.670262 4.03352-1.22405 5.81812-.528814 1.37489-1.033917 2.81414-1.348322 4.77099-.233075 1.13402-.298742 1.94592-.844396 3.25688-.105653.42527-.04758.53946.06325.5534 2.892244.53979 5.235744.61493 7.796069.57045.250188-.3536.281127-.34178.41487-.5013.01892-2.92688.533525-5.7775.95074-8.6431l.08643-.22471c-.06059-1.65474-.209818-3.25408-.518586-4.753706" fill="none" stroke-width=".15"/>
				<path d="m77.21853 105.59966c-.02219 1.15523-.184983 2.19264.04441 3.65537.08499.65591.140216 1.69747.05673 4.06946" fill="none" stroke-linecap="round" stroke-width=".165"/>
				<path d="m76.439524 112.91338c.314573.31291.784367.0655 1.043133.7821 3.033988.24936 5.097226-.17487 6.800802-.84865.818299-.36023.781016-.36868.592889-1.31366-.977848-2.63477-1.562997-5.40064-1.767046-7.01006" fill="none" stroke-width=".165"/>
				<path d="m81.904656 99.075646c.399546 2.237294.728381 3.869794 1.204646 5.447464 1.08955 3.03234 2.519226 5.00156 3.685423 7.53431" fill="none" stroke-width=".165"/>
				<path d="m84.845775 112.59786c.842599-.52987 1.562292-.83697 1.94895-.54044.03826.25774 4.206685-1.11739 6.148988-3.25077.524911-.3892.206489-.54851-.08592-1.00956-1.085818-1.34983-1.832413-2.60608-3.683809-4.1671-1.879589-1.79875-2.784605-3.385-3.179032-5.359251" fill="none" stroke-width=".165"/>
				<path d="m65.634335 102.32813c1.387778.87325 2.978243 1.49877 4.723717 1.93483 3.642926-.005 6.696409-.50034 9.843466-1.12968" fill="none" stroke-width=".1"/>
				<path d="m66.673962 96.501428c-1.322544-.690303-2.974483-1.46493-3.974425-1.843831-1.614584-.553241-4.298075-.945887-4.673988.726443" fill="none" stroke-linecap="round" stroke-width=".1"/>
				<path d="m67.348353 96.83086c1.699116.95867 3.517371 1.440785 5.328947 1.949614" fill="none" stroke-width=".1"/>
				<path d="m87.49449 96.841579c-2.26185 2.546403-9.040069 2.792028-14.008682 2.175409" fill="none" stroke-width=".1"/>
				<path d="m83.719865 89.613572c1.004237 2.81569 2.436398 4.946702 3.774625 7.228007" fill="none" stroke-width=".165"/>
				<path d="m83.626178 84.82495c-2.554814 3.309834-2.733148 2.822418-5.226634 5.873969" fill="none" stroke-width=".165"/>
				<path d="m83.841957 81.084787c-.163244 1.135111-.580032 1.960335-.215781 3.740163.698525 3.15356 1.910434 6.260448 3.308606 9.350404.1871 1.25878.639041 1.930253 1.534428 2.853071 2.744107-.224015 5.323913-1.778104 6.952863-3.020899.483919-1.242335-.122213-1.053209-.287705-2.013934.101218-1.64612-1.181644-1.98612-1.654302-2.109835" fill="none" stroke-width=".165"/>
				<path d="m81.762057 81.453521c.590607.812995 1.682672 1.51027 1.702808 2.454912" fill="none" stroke-width=".165"/>
				<path d="m71.04903 83.740275c-1.687771-.285123-3.764305-.295522-6.194862 1.069025-2.97109 1.552661-3.323277 2.704077-5.071014 4.001989 2.134441.248275 4.3873-.154751 6.688259-.822327 2.635613-1.412691 4.394042-1.209347 4.577617-4.248687z" fill="#fff" stroke-width=".1"/>
				<path d="m71.04903 83.740275c.03227.429147-.219246 1.142075.218281 1.165963.187841.09336.292565-.02108.407599-.109739-.983853 3.069734-2.378702 6.099371-1.896907 9.312095 2.013615-1.681654 4.446878-4.694441 4.420894-8.277418-.354579-1.001441-.955798-1.832131-1.802847-2.492631.571938.413963 3.620062.409285 5.408538-.438955 1.267382-.643668 1.954246-1.751751 2.884557-2.665076-1.085371-.848117-8.769012.513207-9.374804 2.382893-.120602-.520868.05637-1.008673-.689785-1.599047l-3.166739-1.113062c-.14195 1.667074 1.394988 2.846728 3.591213 3.834977" fill="#fff" stroke-width=".1"/>
				<path d="m89.944611 80.744308c-.337396.552784.734768 2.192588.98447 3.544085.643738 1.947757 1.390159 3.793723 2.550985 5.595364" fill="none" stroke-width=".165"/>
				<path d="m84.965327 89.440884c.131007.995598-.270467 1.966596-.07235 2.879043" fill="none" stroke-width=".1"/>
				<path d="m65.09845 82.859979c-.22345.69214-.468392 1.376464-1.059174 1.935028" fill="none" stroke-width=".1"/>
				<path d="m63.080595 88.744347c-.383821 1.110216-.828164 2.202861-2.062943 3.066024-1.518754 1.110745-2.943176 2.86092-2.992104 3.573668" fill="none" stroke-width=".1"/>
			</g>
			<g>
				<path d="m77.436101 40.438874-10.541175 7.84053-7.278409 10.607958 3.229776 8.291483 2.91043 3.485094 9.381032.49964 8.736195-3.002884 3.950444-3.243167.215193-12.391019z" fill="#fbe9d5"/>
			</g>
			<g stroke-linecap="round" stroke-width=".165">
				<path d="m77.522349 58.864386c.91381-.03686 1.61547.05933 2.505922-.161269" fill="none" stroke="#41261b" stroke-linejoin="round"/>
				<path d="m86.404729 58.715518c-2.851589 1.331945-5.884223 1.539269-9.465443 1.314989-.311376.283673.578927.09925.893202.235706-.02937.543503.126249 1.194406-.483816 1.64994.215029-.0158.430059-.137244.645088-.384572 2.852615-.198668 5.85408-.09934 7.715732-1.675373.342639-.29007.418946-.732774.695237-1.14069z" fill="#221919" stroke="#221919" stroke-linejoin="round"/>
				<path d="m68.515912 59.869236c-.846548-.0095-1.698393.09516-2.605168-.09925" fill="none" stroke="#41261b"/>
				<path d="m64.843866 55.279178c.303566-.572278 1.68698-.346408 2.679602-.409384" fill="none" stroke="#41261b"/>
				<path d="m77.195928 53.597608c.549038-.408282 1.816517-.281865 2.3178-.552429" fill="none" stroke="#41261b"/>
				<path d="m76.595461 49.982802c2.817868-.926168 5.564069-.681776 8.286433-.04804" fill="none" stroke="#41261b"/>
				<path d="m67.068052 51.182972c-.378691-.139534-1.170528-.149959-1.980476-.154725" fill="none" stroke="#41261b"/>
				<path d="m68.92902 61.465293c-2.1527.0044-4.079565.06518-6.463913.01162.105176.3139-.298314.901698-.569661 1.418342 2.348809.04592 4.707359.12398 6.754554-.825429.08846-.237875.162289-.592822.27902-.604538z" fill="#221919" stroke="#221919" stroke-linejoin="round"/>
				<path d="m73.127086 69.040932c.307019.109624 1.302611.301739 2.924535.041.69236-.07292.949423-.436042 1.339276-.710636" fill="none" stroke="#41261b"/>
			</g>
			<g>
				<path transform="scale(.26458333)" d="m280.94531 91.603516c-27.56083.245676-44.97225 10.590164-57.9414 23.011714-19.71867 17.48081-21.73853 38.82648-27.79493 57.47461-3.48384 16.28099-12.5724 32.26155-19.04882 48.84375-12.0384 34.912 8.13099 31.94933 22.63086 35.6543 7.86885 12.59447 20.12153 16.27051 35.46875 13.65039l3.26953-16.33398-1.37891-6.58203c-1.53575-7.87472-6.63747-16.39844-10.82812-24.75586 10.65243-8.11816 20.20287-20.13752 27.50976-40.09375.80356 6.49903 2.45883 11.86141 4.00586 17.36914-.92015 12.70246 1.76243 25.40496 7.55078 38.10742-.18712-7.33373-.81541-14.70505 4.74414-21.53906 15.15284-17.90776 26.0768-37.71461 23.53907-63.57032 6.56932 21.46743 24.4611 32.53042 40.07617 45.68555l-.8125 46.83203c-6.49763 2.49882-12.57753 5.43532-14.93164 12.25781l28.96093 11.82422c1.18544-2.40937 1.96649-5.41448 3.12696-7.375 1.22598-.91471 2.95598-1.47295 5.32422-3.375 7.79151.24223 15.3868-.71102 22.1914-6.51367l2.3125-7.40234c18.30837-10.00528 28.81376-25.97977 2.67383-67.46289-1.57807-44.57493-28.79333-87.208322-88.19922-85.169925-4.36822-.400511-8.51196-.572206-12.44922-.537109zm101.66211 109.12109c3.69944 7.3637 6.72937 14.66658 7.96875 21.80664-3.1384 4.96165-6.52161 9.38277-10.77539 11.89063l-1.40234-15.23829zm-181.85742.87695c-2.96232 20.177-10.67005 29.78896-10.24023 44.21485-5.07275-5.00535-12.80241-8.22554-10.39063-18.25782.99771-2.36349 2.70939-4.0134 4.40625-5.67773 6.61458-5.80495 12.46673-12.2128 16.22461-20.2793z" fill="#7a5d4b"/>
				<path d="m96.756399 46.505063c1.625298 2.120959 3.281891 4.223143 4.475151 6.603323-.33668 1.509036-.53478 2.540771-1.11363 4.883938-.598414-3.829087-1.845093-7.658174-3.361521-11.487261z" fill="#553e36"/>
				<path d="m60.660144 62.040142.379135-.291293c.522556 1.221897 1.106786 2.43258 1.442074 3.688525l.106082 1.246224c-.603868-.828947-1.233947-1.88644-1.927291-4.643456z" fill="url(#linearGradient79831)"/>
			</g>
			<g stroke="#41261b">
				<path d="m57.902241 65.847414c.748654 1.793258 2.143682 2.638384 3.238207 3.513347-1.562526-2.166655-3.326792-4.134773-2.758618-6.550737" fill="#553e36" stroke-width=".165"/>
				<path d="m79.519708 24.553756c-7.854284-1.076797-14.807312.203534-20.203004 5.556901-5.856806 5.140494-5.958878 10.393387-7.667665 15.421483-1.218528 5.446016-4.914873 11.666093-5.039979 12.92303-.703821 1.794316-1.24445 3.667756-.775382 6.030746.582815 2.746952 4.350735 2.804038 6.763051 3.403066" fill="none" stroke-width=".165"/>
				<path d="m55.232561 42.410083c-.340029 4.305752.02795 13.53432-2.060122 17.333434-2.088075 3.799114-1.086473 7.050562-.57571 8.145465 1.912354 3.671411 6.119685 4.015385 9.384506 3.611432" fill="none" stroke-width=".165"/>
				<path d="m65.536132 30.739701c-7.883529 8.606372-7.553929 14.623806-7.027852 22.854798.56273 3.989035.16093 7.544031-.399957 11.027439-.296069 2.050854-1.011829 4.027096 1.142738 6.513619" fill="none" stroke-width=".165"/>
				<path d="m63.089284 44.557211c-1.24908 1.987568-2.348828 4.081801-4.050655 5.745978" fill="none" stroke-width=".165"/>
				<path d="m65.969884 39.830789c-.857667 5.366021-4.968587 13.589335-7.238892 15.925964" fill="none" stroke-width=".165"/>
				<path d="m70.256296 31.513806c-4.336064 6.337097-4.609707 14.057977-2.301267 21.361164" fill="none" stroke-width=".165"/>
				<path d="m69.335604 45.057856c-.662278 2.403619-1.11565 5.016144-1.380577 7.817114-.181471 2.508361.385303 7.14558 1.997808 10.08258-.06223-1.28783-.160228-3.882999 1.255038-5.699098 7.999826-8.555007 7.770125-19.908019 2.695241-29.462486" fill="none" stroke-width=".165"/>
				<path d="m66.894926 48.279404c-1.856746 5.049581-4.424449 8.979784-8.127696 11.122109" fill="none" stroke-width=".165"/>
				<path d="m59.616442 58.88756c1.008318 2.177344 2.292926 4.323989 2.864911 6.549814.145297.437742-.117323.926557.364953 1.741469" fill="none" stroke-width=".12"/>
				<path d="m53.398012 51.06209c-.212464 2.44845-.703714 5.105903-1.872599 8.320514-.684367 1.763237-1.101736 3.631366-1.119698 5.656405" fill="none" stroke-width=".1"/>
				<path d="m53.115048 53.34028c-1.130056 2.465478-2.760569 3.804928-4.292661 5.365826-.534604.434092-.905517.963685-1.164413 1.527247-.595595 1.296478-.598363 2.772729-.637444 3.679592.04528.447088.09231.881856.172238 1.086414" fill="none" stroke-width=".1"/>
				<path d="m47.65648 60.208151c-.71409 2.453952 1.453792 3.71525 2.749235 4.830858.571282.453883 1.29393 1.558996 1.940896 2.278917" fill="none" stroke-linecap="round" stroke-width=".1"/>
				<path d="m77.43623 40.438726c1.979314 5.711332 6.425232 8.754704 10.603156 12.087947" fill="none" stroke-linecap="round" stroke-width=".165"/>
				<path d="m80.772645 37.381804c1.448976 3.090753 3.291113 6.155295 6.131313 9.1533" fill="none" stroke-width=".165"/>
				<path d="m78.803158 29.304279c6.264897 7.698316 8.118508 15.455449 9.236228 23.222394.318915 4.276752-.0047 8.31256-.214992 12.390855-3.644584 1.23616-3.20068 2.199755-3.950476 3.242929" fill="none" stroke-width=".165"/>
				<path d="m89.288796 52.100175c.340644 5.595175 1.060898 11.190349-.354515 16.785524" fill="none" stroke-linecap="round" stroke-width=".165"/>
				<path d="m89.722062 38.524523c3.825005 9.639577 7.03627 20.740126 1.814256 32.764794" fill="none" stroke-width=".165"/>
				<path d="m92.400524 69.288262c1.992442-1.024153 3.555023-2.639366 5.224113-4.108127" fill="none" stroke-linecap="round" stroke-width=".165"/>
				<path d="m89.098447 32.250716c8.071562 12.459732 13.510763 27.189471 10.545752 34.470876-2.761479 1.941901-3.680281 1.511372-5.871734 1.723544" fill="none" stroke-width=".165"/>
				<path d="m96.605539 46.29573c3.274614 4.174519 6.582311 8.867655 7.046941 14.748028" fill="none" stroke-linecap="round" stroke-width=".165"/>
				<path d="m93.934252 37.534191c6.863288 8.154919 17.291958 21.659916 6.321548 27.228752" fill="none" stroke-width=".165"/>
				<path d="m103.3401 58.877961c-.79831 1.199868-1.6367 2.472072-2.85111 3.146343" fill="none" stroke-linecap="round" stroke-width=".165"/>
				<path d="m101.23129 53.108259c-.0842 1.689641-1.03695 3.267249-1.11345 4.884003" fill="none" stroke-linecap="round" stroke-width=".165"/>
				<path d="m77.627262 24.37881c17.22877-.796599 23.170398 13.153875 23.336298 22.53436" fill="none" stroke-width=".165"/>
				<path d="m94.077942 54.315362c3.301179.252784 2.880072 5.787021-.0322 7.501766.297958-2.459557.335004-4.956386.0322-7.501766z" fill="#fbe9d5" stroke-width=".165"/>
				<path d="m60.660144 62.040142c.422813 1.84809 1.075509 3.564757 2.109804 4.995852" fill="none" stroke-width=".1"/>
			</g>
			<g fill="#cc3637">
				<path d="m62.846312 67.178766c-1.293844.629455-1.806364 2.161895-1.705864 2.181995-.808071 1.362214 1.070948 2.029394 1.012952 3.234409-1.917321 1.068126-3.717454 3.110224-5.063784 5.577335-.697871 1.441152-1.186577 2.819555-1.692315 4.203067-.267976-.01949-.512508.0075-1.597031 1.158961-.955863.318794-2.195102.230386-3.589712.768058-4.006939.67055-6.748818 2.980993-9.479261 5.306261l-2.731196 2.924093c-.93022 1.61263-2.650371 3.236081-1.963039 4.826553 1.093863.65472-.159847 1.994148-.666353 3.115642-.541622 1.03053-.703154 2.02745-.342578 3.21717.414965 1.77404 1.037095 3.66842 1.873388 5.37338.766583-.24377 1.592867-.36815 2.431285-.46825-.172762-.14036-.281806-.4768-.458642-1.01981-.156473-1.01541-.742296-2.59459-1.334362-3.84858.05636-.89536.351699-1.98458.44491-2.05251.494228-.36016.547759-.68613.623975-1.03863-.05055 2.57553 1.097958 4.56242 2.117465 6.61265.580339.99974 1.270835.0962 2.369106.54038.313589.28459.471905.83124.96498.90044.755723.1588 2.08242-.10939 3.129722-.17483-1.164395-1.3526-2.167492-2.82251-3.110851-4.33587 1.279106 1.05951 2.561089 2.11279 3.603945 3.68418 1.190768-.002 2.475359.12855 3.441943-.19122-1.185439-1.67574-2.860265-2.70484-4.693557-4.17205.885476-.30196 1.904933.1424 3.033273.65534 1.074432.48843 2.159545 1.19796 3.137884 1.74359-.147127-.74772-.309173-1.49693-.260752-2.22509-1.874527-.76919-2.840384-2.46195-5.807215-2.12093l-.731862-.67645c.07334-.23092.211686-.1368.320826-.18872.887295.17788.782382-.952905.864119-1.359786l.459967-3.479435.484302-2.864295c.154311-1.074683.584895-1.970602 1.425228-2.601388l1.149154-.921917 2.794114-.464775c1.801052-.128132 2.933424-.81651 3.99927-1.560626.950544-.596472 1.901087-1.626274 2.851631-1.667608l7.412702-5.80104z"/>
				<path transform="scale(.26458333)" d="m237.5293 253.9043c3.48646 16.81506 8.80125 33.10635 17.83008 48.33789 6.12361 3.17644 13.03147 4.68253 20.45312 5.08984 9.60795-1.57248 19.26998-4.29766 28.80078-4.25 8.61862-1.35147 17.0223-4.10466 25.29492-7.70508 6.28882 10.44929 16.60459 13.10243 26.86133 15.86914 9.19641.36804 18.08661-.54001 26.76367-2.33593 6.8346 10.40107 13.01965 21.02641 16.84571 32.45898 2.52491 7.30584 4.79161 14.67607 6.2832 22.24024l.29101 8.69335c-3.21441 1.53062-6.43264 3.08292-9.80859 5.74415l.0645 2.90234c-5.34421.22375-9.25983 3.09833-13.61328 5.16211-6.19303-5.6705-12.24672-5.70296-18.13281.90429l10.89649 2.62891c3.6093 1.07403 7.23199 2.22326 10.31835.5332l-5.87109 7.23633c-2.42831 3.96136-5.45995 8.1759-3.16016 10.14258l-.88671 1.20508c1.84005 2.39977 4.75541 3.63437 7.4707 5.08594 2.72285-5.19032 9.50707-9.78899 20.13476-13.82813 2.52972-3.66856 5.55598-6.75717 8.5293-9.9082-4.25594 5.78226-8.81428 11.43721-9.74805 18.625l-4.71679 8.65625 6.60742 3.84765 1.61719-2.43359 5.98828-.0254.82812-8.16992 1.79297-1.92969 6.97266-4.95703-1.2793 4.7793-2.42773 15.48828c2.91352 1.11398 5.82671 1.06812 8.74023 1.16601l1.2793-10.42773 2.37305-11.38672c.55483-4.11802 2.14811-7.38461 4.15039-10.31836l8.24414-8.00781c3.13568-3.38449 2.75207-6.9283 3.14257-10.4375l-.59179-8.24414-.97071-11.03125-1.2246-5.45508c-4.60751-17.024-11.71818-30.73762-18.38477-36.5332-10.31221-8.28788-21.92502-16.88626-38.15234-21.23438-13.45018-6.39364-31.00889-12.44603-39.76954-19.23047l-1.40039-3.41211-9.83593-9.08398-9.89063-4.15235c-2.16415-1.06688-16.13358 2.57438-24.66797 5.3125-5.28089 3.06383-11.28464 5.4058-17.58593 7.44922-4.26786-.84869-8.56-1.05261-12.75977-3.60351l-25.03125-6.85352c-3.22843-1.02403-6.30498-2.27546-8.66406-4.60351zm166.51758 132.55273-5.93555 7.36328-7.54102 3.09961c3.42841-4.61064 8.6032-7.37743 13.47657-10.46289z"/>
			</g>
			<g fill="none" stroke="#000">
				<path d="m60.151377 85.76951c-1.163526.158674-1.340896.756785-2.644995 1.563198-1.292592.732522-1.831894 1.43814-4.205905 1.665037-1.720655.307406-3.72714.447037-5.245352 1.029821" stroke-width=".1"/>
				<path d="m50.506362 89.462519c-1.237638.820004-2.280023 1.807368-2.55239 3.454746-.657747 3.483327-.782102 5.381695-.966261 6.412289-.167514 1.777336-.711256 1.221036-1.131042 1.442696-.27566.15857.478716.3411.677958.78226 3.338124-.19443 4.033864 1.33648 5.807216 2.12093-.07219.84114.110743 1.52283.260752 2.22509-1.045778-.62045-2.051358-1.28511-3.233338-1.75574-.808857-.33277-1.211602-.92292-2.937819-.64319 1.456401 1.41358 2.615461 1.46175 4.693557 4.17205-.605571.35701-2.284518.15557-3.441943.19122-2.484907-3.42132-3.164912-2.68-3.928679-4.27635" stroke-width=".1"/>
				<path d="m41.654436 99.857321c.156829.153609.301284.308249.246991.479449.463205 1.19423 1.142041 2.23444 1.852946 3.25175.944685 1.89493 2.327908 3.67669 3.435585 4.92804-.805421.12561-2.013835.23189-2.455389.23246-.821494 3e-4-.878165-.0753-1.423836-.71191-2.282642-2.66-3.185797-6.98869-2.992959-8.73189" stroke-width=".1"/>
				<path d="m41.007691 99.520641c-.855567-.348413-1.630826-.53621-2.593372-1.098582-.156083-.04201-.312166-.163946-.468249.09005-.331858 1.000993-1.193441 1.896041-.972513 3.007591.06746 1.43682 1.056265 3.28894 1.674887 4.98864.26489.766.198507 1.50546.68436 2.0891-.793946.10664-1.594194.23218-2.431285.46825-.990286-1.89648-1.465665-3.89103-2.017067-5.87111-.300848-1.15338.16492-1.89789.486257-2.71944.40952-1.284731 1.734181-2.376922.666353-3.115641-.671556-1.281275.880109-3.111817 1.963039-4.826553 1.44306-1.631251 2.889698-3.261161 4.84456-4.700487 2.641569-2.03414 4.729929-3.139071 7.365897-3.529867 2.162123-.78762 3.26879-.189491 3.944085-1.134599.401998-.459687.804948-.904135 1.242658-.79242" stroke-width=".1"/>
				<path d="m38.560584 98.519251c-.09257 1.01511.387382 2.430979-.36966 2.980959-.443628.35451-.548347 1.29001-.651124 2.22884" stroke-width=".065"/>
				<path d="m38.608685 100.63791c.101834 3.04965 1.149287 4.72596 2.086522 6.59622.300819.52795.695061.58878 1.123223.48001.457206-.16398.870125-.0623 1.276826.0768" stroke-width=".065"/>
				<path d="m42.880473 100.1102c.350973.17376 1.381439.18322 1.412621.7156.48208.87655 1.32319 1.77704 2.138344 2.6758" stroke-width=".1"/>
				<path d="m43.88658 100.35859c.291514.0764.658315.10259.794536.28251" stroke-width=".065"/>
				<path d="m62.1534 72.59517c-4.556678 2.538961-6.076275 8.036994-6.756099 9.780402-1.518032 4.14008-.138005 2.146863-4.680127 6.249255" stroke-width=".065"/>
				<path d="m65.138614 68.396987c-.756356-.248402-1.700604-.581025-2.292302-1.218221-.744668.221482-1.535172 1.258089-1.697993 1.975847-.210146.844385-.524569 1.136715.468236 2.258843.207132.260135.660037.716378.536845 1.181714-.02364.402445.07026.775502.340394 1.104503l6.078466 2.78424c.452655.09429 1.279877.563144 1.92967.85457.966621.357452 1.466877 1.073612 4.024744.05513.2766-.14663 1.55586-.66041 2.687759-.785653 1.022775-.113323 3.755437-.170146 2.977205.20675" stroke-linecap="round" stroke-width=".1"/>
				<path d="m67.564079 79.96847c1.733714.939368 3.548644 1.31023 5.411398 1.346316 2.325935-.252531 4.075618-1.123581 7.620402-1.124108 2.443027-.238906 4.7978-1.19597 6.69236-2.039078 4.557754-2.41104 5.182735-4.928899 4.248081-6.862283l-2.602039-2.403618c-.932672-.435203-1.808229-.749434-2.617139-1.098553-.151782-.133626-.436443-.134373-.759294-.09693-1.886364.404537-3.756653.766208-5.7674 1.502431-1.162486.631185-2.305956 1.27716-3.844933 1.615519-.264763.11398-.388433.08687-.80776.355413-1.141984-.284705-2.388402-.360541-3.376432-.953154l-6.622709-1.813438" stroke-linecap="round" stroke-width=".165"/>
				<path d="m73.573938 78.002687c1.102669-.414016 2.177418-.35391 3.02451-.324056 1.58759.08012 2.326534-.310686 3.105526-.702117" stroke-linecap="round" stroke-width=".1"/>
				<path d="m82.308183 76.661504c1.731423-.394795 3.329094-.923343 4.574855-1.8038" stroke-linecap="round" stroke-width=".165"/>
				<path d="m75.856903 74.136024c3.983206.296518 7.89383-.20536 11.75421-1.259927" stroke-linecap="round" stroke-width=".165"/>
				<path d="m75.137755 71.163579c.94456.393301 5.004439.198806 7.90996.222115.789241-.03256 1.132845-.220447 1.336751-.399489" stroke-linecap="round" stroke-width=".14"/>
				<path d="m87.288237 78.1516c1.382649 2.221528 3.812541 3.570354 7.106938 4.198758 2.226399.08279 4.537823-.01755 7.081295-.617681 1.56885-.549783 3.02487-.450833 4.50026-.463264 1.01013-.02435 2.13993-.149691 3.83845 1.058886 1.23015.978871 2.27059 1.664906 2.88988 2.735453" stroke-width=".14"/>
				<path d="m101.47647 81.732677c3.2762 4.592233 5.03468 9.469039 6.11937 14.472179-.23461 1.676332.239 2.467391.51543 3.50492" stroke-linecap="round" stroke-width=".165"/>
				<path d="m107.6729 98.505255c-1.10573.337049-1.95008 1.013592-2.59494 1.519405l.0171.76824c-1.29732.0367-2.43457.76704-3.60219 1.36576-2.02386-1.99256-3.960831-.95719-4.797221.239 1.049782.18876 2.155433.44456 3.431461.90482.84668.23719 1.69374.47724 2.40715-.3073" stroke-width=".165"/>
				<path d="m103.69513 102.0733c-2.24172 1.43753-4.844989 5.28893-3.775984 5.75949" stroke-width=".165"/>
				<path d="m103.07693 105.22173c1.08255-1.28823 2.4037-2.14384 3.827-2.97189-.36977.67255-.97837 1.30928-1.57005 1.94855-2.13564.94949-4.37781 1.74361-5.649396 3.95318.617676.78885 1.392666 1.12212 1.976586 1.34576 1.05105-2.08074 3.72047-2.84052 5.32698-3.65879.58989-.94149 1.43483-1.7767 2.25695-2.62143-1.5694 1.82093-2.71781 4.07731-2.57938 4.92762" stroke-linecap="round" stroke-width=".165"/>
				<path d="m111.06995 103.20224c.006 1.0959-.99608 1.64866-1.77233 2.32319-1.69554 1.53282-3.3989 3.06361-3.87997 4.90983.23742.29762 1.04075.89545 1.74838 1.01789 1.22718-2.16277 2.84948-3.48265 4.55058-4.6344" stroke-width=".165"/>
				<path d="m107.59387 110.80949c.48906.02.97506.0418 1.58461-.007.21939-.73268.20283-1.4457.21879-2.16143" stroke-width=".165"/>
				<path d="m91.907245 72.192186c1.34466 1.356655 6.854357 3.36665 10.522405 5.087758 2.54449.706842 4.29061 1.663179 6.03208 2.620965 2.20356 1.520269 4.96111 3.066895 6.07062 5.62737 1.37638 2.773793 2.7103 5.554662 3.17984 8.479594.41017 4.64165 1.12631 7.141097-1.13703 8.518137-2.49524 1.99142-2.53375 3.98284-2.91005 5.97426-.26929 1.33683-.63903 2.68483-.61669 3.98926-.74999-.0192-1.46556.0992-2.31262-.30834.0822-1.88538.56941-3.60875.98081-5.36244l1.27399-3.21352" stroke-width=".165"/>
				<path d="m115.42263 90.988477c-1.15012 4.14774-3.14637 6.928652-6.08073 8.194153" stroke-linecap="round" stroke-width=".165"/>
				<path d="m105.8944 101.19332c.94702.26021 1.01218.55242 1.83582.77207" stroke-linecap="round" stroke-width=".165"/>
				<path d="m109.40423 102.61814c1.316.52512 3.23439 1.33107 4.11845.84241" stroke-linecap="round" stroke-width=".165"/>
			</g>
			<g>
				<path d="m63.837028 72.536705c-.456622.260529-.685909.665727-.965512 1.038905-1.541824.02788-2.405321 1.155974-2.548025 3.453159-1.927934 1.907881-3.040366 3.736647-2.686224 5.423133.06529 1.594268.639794 2.786894 1.915834 3.426201 1.739297.01617 3.71379.396072 4.486175-1.083093.54867-.562124 1.447877-.975716 1.059174-1.935033l2.510687-2.891631c.295971-.917184.405282-1.865478.394457-2.833794.336166-.638874.949287-1.191796.840549-1.968743z" fill="#48414f"/>
				<path d="m67.371255 68.265455c-.313272-.367672-.735457-.63369-1.808408-.292328-1.019001.645667-1.430803 1.337333-1.891398 2.025303-.123307.776995.02494 1.659108.165579 2.538275l.06876 1.294731c.613623.684208 1.310814 1.335644 2.366502 1.846493 1.007379.38419 1.853078.170651 2.571853-.51212.647961-.483539.404833-1.677365.511601-2.59229l.220459-.741119c1.320976-.703471 2.506728-1.436992 2.124858-2.518873-.464044.06658-.90807.179203-1.285232.445612.04788-.289397-.767423-.858801-1.819506-1.025119-.419793-.270562-.822333-.36859-1.225068-.468565" fill="#fbe9d5"/>
			</g>
			<g stroke="#000">
				<path d="m63.905788 73.831438c.0099-2.036309-.119994-1.60305-.267809-2.510705-.0721-.451981-.05014-.846723.03347-1.322303.467061-.838506 1.09418-1.516954 1.891398-2.025303.781645-.36133 1.710567-.04174 1.808409.292329" fill="none" stroke-width=".1"/>
				<path d="m66.465955 68.302488c.520094-.03726 1.036878-.117089 1.578594.123809.92534.378462.52712.287967.226986.412705" fill="none" stroke-linecap="round" stroke-width=".1"/>
				<path d="m66.728987 69.233787c.592922-.08435 1.136277-.198443 1.542548-.394785 1.110278-.272706 2.386164.683278 2.144294.920137" fill="none" stroke-linecap="round" stroke-width=".1"/>
				<path d="m68.426999 70.898964 1.98883-1.139825c.371905-.109561.408208-.255397.605295-.340363.120552-.05197.271095.01015.679937-.105249.334715 1.31511-1.012963 1.863247-2.124858 2.518873-.08259.283445-.156097.530578-.220459.741119-.207835 1.009742.367504 2.100105-.944295 2.996203-.688549.354621-1.396051.462854-2.139159.108207-.451907-.256652-.786842-.357341-1.489919-.948886-.33297-.299202-.594197-.598405-.876583-.897607" fill="none" stroke-linecap="round" stroke-linejoin="round" stroke-width=".1"/>
				<path d="m63.837028 72.536705c-.295682-.02274-.807839.74402-1.521336 2.24508-.357581.643385-.347734 1.244606.04431 1.801968.887473.917537 1.732767 1.866623 4.091361 1.683809.504771-.03521.765991-.271092 1.048686-.679432 1.165566-1.096682 1.426755-1.813125 1.344094-2.422321" fill="none" stroke-width=".14"/>
				<path d="m62.871516 73.57561c-1.697175.06672-2.20915 1.281987-2.345277 1.984468-.340292 2.14003-.02436 4.485039-.721625 5.201708" fill="none" stroke-linecap="round" stroke-width=".165"/>
				<path d="m60.323491 77.028769c-1.884703 1.783873-3.038787 3.58535-2.686224 5.423133.128537 1.248715.193901 1.94655 1.013669 2.807867.31862.277706.60981.44569.902165.618336.978685.251679 2.775442.04035 3.04101-.05068.655482-.09018 1.14108-.428654 1.445165-1.032415" fill="none" stroke-linecap="round" stroke-width=".165"/>
				<path d="m68.003595 77.134554c.04398 1.727315-.241272 2.981504-1.223565 3.88711-1.377014 1.47929-2.756257 3.054423-4.111846 3.612431" fill="none" stroke-width=".14"/>
				<path d="m62.879692 73.742038c.357045 1.064551 1.340411 2.540674 2.965571 2.992967.851553.217631 1.616944.228147 2.246437.171223l-.591651.681902c-.966696.0022-1.955348.09891-2.825945-.312063-.969546-.668446-1.868479-1.655329-2.089766-2.901492z" fill="#fefeff" stroke-linecap="round" stroke-linejoin="round" stroke-width=".08"/>
			</g>
			<g fill="#cc3637" stroke="#41261b" stroke-width=".165">
				<path d="m82.253094 38.838452c-1.512778.658118-3.042698 1.878381-4.280318 4.023891.550463 1.737256 1.244719 2.072531 1.933046 2.465621.681059-1.627434 2.296502-3.10416 4.063344-4.556467-.464475-.61078-1.362216-1.786217-1.716072-1.933045z"/>
				<path d="m86.159037 43.285518-.579371-.527873c-2.044934 1.058819-3.040737 2.615976-4.094229 4.14573-.191269.928786 1.195355 1.947117 1.776741 2.265987 1.102953-1.006821 2.205905-2.153503 3.308858-3.283109l.167375-.399121z"/>
			</g>
		</g>
	</g>
	<metadata>
		<rdf:RDF>
			<cc:Work rdf:about="">
				<dc:title>SVG Redraw : Ayano Trading Strap</dc:title>
				<dc:date>2022-09-20</dc:date>
				<dc:creator>
					<cc:Agent>
						<dc:title>ShinProg</dc:title>
					</cc:Agent>
				</dc:creator>
				<dc:source>https://myfigurecollection.net/item/240705</dc:source>
				<dc:rights>
					<cc:Agent>
						<dc:title>CC-BY-SA</dc:title>
					</cc:Agent>
				</dc:rights>
			</cc:Work>
		</rdf:RDF>
	</metadata>
</svg>
